
<?xml version="1.0" encoding="UTF-8" standalone="no" ?>

<svg version="1.0" id="Icons" xmlns="http://www.w3.org/2000/svg" x="0" y="0" viewBox="0 0 500 500" xml:space="preserve"><style>.st0,.st6{fill:#ecf2f9;stroke:#53b3df;stroke-width:5;stroke-linecap:round;stroke-linejoin:round;stroke-miterlimit:10}.st6{fill:none;stroke-width:3}.st9{fill:#53b3df}.st11{fill:#ecf2f9;stroke:#53b3df;stroke-width:3;stroke-linecap:round;stroke-linejoin:round}.st11,.st17,.st52{stroke-miterlimit:10}.st17{fill:none;stroke:#fff;stroke-width:3;stroke-linecap:round;stroke-linejoin:round}.st52{fill:#ecf2f9;stroke:#53b3df;stroke-width:5}.st53{fill:#fff}.st53,.st54,.st56{stroke:#53b3df;stroke-width:5;stroke-miterlimit:10}.st54{fill:#fff;stroke-linecap:round;stroke-linejoin:round}.st56{fill:#fae079}</style><switch><g><path class="st9" d="M381.88 253.04h23.46v22.37h-23.46z"/><path class="st11" d="M381.89 247.42v-5.47h21.88c3.02 0 5.47 2.45 5.47 5.47v5.47h-27.35v-5.47zM381.86 280.88h.02v-5.48h27.35v5.48h-4.4V287.19c0 1.21-.98 2.19-2.19 2.19h-20.79v-4.25l.01-4.25z"/><path class="st6" d="M409.25 247.42h-13.68M409.25 280.54h-13.68"/><path class="st17" d="M390.2 269.35v-10.74"/><path class="st9" d="M95.99 253.04h23.46v22.37H95.99z"/><path class="st11" d="M119.44 247.42v-5.47H97.55c-3.02 0-5.47 2.45-5.47 5.47v5.47h27.35v-5.47h.01zM119.47 280.88h-.02v-5.48H92.1v5.48h4.4V287.19c0 1.21.98 2.19 2.19 2.19h20.79v-4.25l-.01-4.25z"/><path class="st6" d="M92.08 247.42h13.68M92.08 280.54h13.68"/><path class="st17" d="M111.13 269.35v-10.74"/><circle transform="rotate(-22.711 377.047 289.419)" class="st52" cx="377.08" cy="289.44" r="14.42"/><circle transform="rotate(-45.001 122.92 289.44)" class="st52" cx="122.92" cy="289.44" r="14.42"/><circle transform="rotate(-22.711 250.644 289.418)" class="st52" cx="250.67" cy="289.44" r="14.42"/><path class="st9" d="M256.43 289.44c0 3.19-2.58 5.77-5.77 5.77-3.19 0-5.77-2.58-5.77-5.77 0-3.19 2.58-5.77 5.77-5.77 3.19 0 5.77 2.58 5.77 5.77z"/><path d="M425.67 239.61v-8.7c0-.88-.58-1.66-1.42-1.91l-31.42-9.57H108.5L77.08 229c-.84.26-1.42 1.03-1.42 1.91v8.7c0 1.1.9 2 2 2h48v25h-48c-1.1 0-2 .9-2 2v18.83c0 1.1.9 2 2 2h346c1.1 0 2-.9 2-2v-18.83c0-1.1-.9-2-2-2h-48v-25h48c1.11 0 2.01-.9 2.01-2z" fill="#fff"/><path class="st52" d="M389.67 209.42H109.72c-1.1 0-2-.9-2-2v-6c0-1.1.9-2 2-2h279.94c1.1 0 2 .9 2 2v6c.01 1.11-.89 2-1.99 2z"/><path d="M423.67 289.44h-346c-1.1 0-2-.9-2-2v-8h350v8c0 1.1-.9 2-2 2z" fill="#fae079"/><path d="M423.67 289.44h-346c-1.1 0-2-.9-2-2v-8h350v8c0 1.1-.9 2-2 2z" fill="none" stroke="#53b3df" stroke-width="5" stroke-miterlimit="10"/><path class="st53" d="M108.5 279.44H75.67v-9.82c0-1.1.9-2 2-2h30.83v11.82zM425.67 279.44h-32.83v-11.82h30.83c1.1 0 2 .9 2 2v9.82z"/><path class="st54" d="M108.5 241.4H77.67c-1.1 0-2-.9-2-2v-8.5c0-.88.58-1.66 1.42-1.91l31.42-9.57v21.98zM423.67 241.4h-30.83v-21.98l31.42 9.57c.84.26 1.42 1.03 1.42 1.91v8.5c-.01 1.11-.91 2-2.01 2z"/><path class="st53" d="M125.68 209.42h32.83v10h-32.83zM342.81 209.42h32.83v10h-32.83z"/><path class="st56" d="M158.52 209.42h184.29v10H158.52z"/><path d="M360.77 279.44H140.56v-21.4c0-2.76 2.24-5 5-5h210.21c2.76 0 5 2.24 5 5v21.4z" fill="#ecf2f9" stroke="#53b3df" stroke-width="3" stroke-miterlimit="10"/><path class="st0" d="M375.65 219.42h17.18v21.98h-17.18zM375.65 266.61h17.18v12.8h-17.18zM108.5 219.42h17.18v21.98H108.5zM108.5 266.61h17.18v12.8H108.5z"/><path class="st56" d="M108.5 289.44H77.67c-1.1 0-2-.9-2-2v-8h32.83v10zM423.67 289.44h-30.83v-10h32.83v8c0 1.1-.9 2-2 2z"/><path d="M425.67 239.61v-8.7c0-.88-.58-1.66-1.42-1.91l-31.42-9.57H108.5L77.08 229c-.84.26-1.42 1.03-1.42 1.91v8.7c0 1.1.9 2 2 2h48v25h-48c-1.1 0-2 .9-2 2v18.83c0 1.1.9 2 2 2h346c1.1 0 2-.9 2-2v-18.83c0-1.1-.9-2-2-2h-48v-25h48c1.11 0 2.01-.9 2.01-2z" fill="none" stroke="#53b3df" stroke-width="5" stroke-linecap="round" stroke-linejoin="round" stroke-miterlimit="10"/></g></switch></svg>